<svg width="12" height="12" viewBox="0 0 12 12" fill="none" xmlns="http://www.w3.org/2000/svg">
<path d="M6 11.8333C9.21651 11.8333 11.8333 9.21646 11.8333 5.99996C11.8333 2.78346 9.21651 0.166626 6 0.166626C2.7835 0.166626 0.166672 2.78346 0.166672 5.99996C0.166672 9.21646 2.7835 11.8333 6 11.8333ZM3.35721 4.66967C3.52813 4.49875 3.80492 4.49875 3.97584 4.66967L6 6.69383L8.02388 4.66996C8.1948 4.49904 8.47159 4.49904 8.64251 4.66996C8.81342 4.84088 8.81342 5.11767 8.64251 5.28858L6.30917 7.62192C6.224 7.70738 6.112 7.74996 6 7.74996C5.888 7.74996 5.776 7.70738 5.69055 7.62192L3.35721 5.28858C3.18659 5.11767 3.18659 4.84058 3.35721 4.66967Z" fill="#0A84FF"/>
</svg>
