<svg width="56" height="56" viewBox="0 0 56 56" fill="none" xmlns="http://www.w3.org/2000/svg">
<path d="M24.0171 45.9826C24.4732 46.4388 25.0694 46.6663 25.6667 46.6663C26.2641 46.6663 26.8602 46.4388 27.3164 45.9826C28.2276 45.0714 28.2276 43.5944 27.3164 42.6833L14.9661 30.3329H46.6667C47.9547 30.3329 49.0001 29.2876 49.0001 27.9996C49.0001 26.7116 47.9547 25.6663 46.6667 25.6663H14.9661L27.3164 13.3159C28.2276 12.4048 28.2276 10.9278 27.3164 10.0166C26.4052 9.10545 24.9282 9.10545 24.0171 10.0166L7.68374 26.3499C6.77257 27.2611 6.77257 28.7381 7.68374 29.6493L24.0171 45.9826Z" fill="black"/>
</svg>
