<svg width="56" height="56" viewBox="0 0 56 56" fill="none" xmlns="http://www.w3.org/2000/svg">
<path d="M27.9656 5.80108C27.3472 5.81014 26.7577 6.06435 26.3266 6.50785C25.8954 6.95135 25.658 7.54786 25.6665 8.16631V25.6663H8.16649C7.8573 25.6619 7.55032 25.7191 7.26339 25.8344C6.97647 25.9497 6.71532 26.1208 6.49512 26.3379C6.27492 26.555 6.10007 26.8137 5.98073 27.099C5.86138 27.3843 5.79993 27.6904 5.79993 27.9996C5.79993 28.3089 5.86138 28.615 5.98073 28.9003C6.10007 29.1855 6.27492 29.4442 6.49512 29.6614C6.71532 29.8785 6.97647 30.0496 7.26339 30.1649C7.55032 30.2802 7.8573 30.3373 8.16649 30.333H25.6665V47.833C25.6621 48.1422 25.7192 48.4492 25.8345 48.7361C25.9498 49.023 26.121 49.2842 26.3381 49.5043C26.5552 49.7245 26.8139 49.8994 27.0992 50.0187C27.3845 50.1381 27.6906 50.1995 27.9998 50.1995C28.3091 50.1995 28.6152 50.1381 28.9005 50.0187C29.1857 49.8994 29.4444 49.7245 29.6615 49.5043C29.8786 49.2842 30.0498 49.023 30.1651 48.7361C30.2804 48.4492 30.3375 48.1422 30.3332 47.833V30.333H47.8332C48.1424 30.3373 48.4493 30.2802 48.7363 30.1649C49.0232 30.0496 49.2843 29.8785 49.5045 29.6614C49.7247 29.4442 49.8996 29.1855 50.0189 28.9003C50.1383 28.615 50.1997 28.3089 50.1997 27.9996C50.1997 27.6904 50.1383 27.3843 50.0189 27.099C49.8996 26.8137 49.7247 26.555 49.5045 26.3379C49.2843 26.1208 49.0232 25.9497 48.7363 25.8344C48.4493 25.7191 48.1424 25.6619 47.8332 25.6663H30.3332V8.16631C30.3374 7.85433 30.2791 7.54466 30.1616 7.25562C30.0441 6.96658 29.8698 6.70404 29.6491 6.48352C29.4284 6.263 29.1657 6.08899 28.8765 5.97177C28.5873 5.85455 28.2776 5.79651 27.9656 5.80108Z" fill="black"/>
</svg>
