<svg width="56" height="56" viewBox="0 0 56 56" fill="none" xmlns="http://www.w3.org/2000/svg">
<path d="M28 7C27.6925 7 27.385 7.08276 27.1067 7.24609L7.35315 19.0632C6.74998 19.4248 6.23929 19.9025 5.83329 20.4508L28 31.3018L50.1643 20.4508C49.7584 19.9025 49.2499 19.4248 48.6468 19.0632L28.8932 7.24609C28.6149 7.08276 28.3074 7 28 7ZM28 11.6667C28.966 11.6667 29.75 12.4507 29.75 13.4167V16.9167H33.25C34.216 16.9167 35 17.7007 35 18.6667C35 19.6327 34.216 20.4167 33.25 20.4167H29.75V23.9167C29.75 24.8827 28.966 25.6667 28 25.6667C27.034 25.6667 26.25 24.8827 26.25 23.9167V20.4167H22.75C21.784 20.4167 21 19.6327 21 18.6667C21 17.7007 21.784 16.9167 22.75 16.9167H26.25V13.4167C26.25 12.4507 27.034 11.6667 28 11.6667ZM4.66663 23.846V41.4167C4.66663 45.5933 8.07329 49 12.25 49H43.75C47.9266 49 51.3333 45.5933 51.3333 41.4167V23.846L28.7701 34.8245C28.5251 34.9412 28.2566 35 28 35C27.7433 35 27.4748 34.9412 27.2298 34.8245L4.66663 23.846Z" fill="black"/>
</svg>
