<svg width="56" height="56" viewBox="0 0 56 56" fill="none" xmlns="http://www.w3.org/2000/svg">
<path d="M23.764 5.30925C13.2874 7.77092 5.83337 17.1033 5.83337 28C5.83337 40.8683 16.2984 51.3333 29.1667 51.3333C40.075 51.3333 49.3958 43.8677 51.8575 33.4027C51.1575 33.4727 50.4702 33.4961 49.7702 33.4961C42.8752 33.4961 36.2943 30.7891 31.336 25.8307C25.876 20.3707 23.1457 12.9626 23.764 5.30925ZM27.2299 5.81055C26.7865 12.3556 29.1323 18.6778 33.8106 23.3561C38.4889 28.0345 44.8339 30.4035 51.3789 29.9369C50.1423 28.2102 47.0865 24.8495 39.7715 17.5228C32.3865 10.1495 28.9799 7.05889 27.2299 5.81055Z" fill="black"/>
</svg>
