<svg width="56" height="56" viewBox="0 0 56 56" fill="none" xmlns="http://www.w3.org/2000/svg">
<path d="M28.9658 6.00024C28.3589 6.00932 27.7794 6.25453 27.3503 6.68383L20.3503 13.6838C20.1263 13.8988 19.9475 14.1564 19.8244 14.4413C19.7012 14.7263 19.6361 15.033 19.633 15.3434C19.6298 15.6538 19.6886 15.9618 19.806 16.2492C19.9233 16.5366 20.0968 16.7977 20.3163 17.0172C20.5359 17.2368 20.797 17.4103 21.0844 17.5276C21.3718 17.6449 21.6797 17.7038 21.9902 17.7006C22.3006 17.6974 22.6073 17.6324 22.8922 17.5092C23.1772 17.386 23.4347 17.2073 23.6497 16.9833L26.6667 13.9664V35.1669C26.6623 35.4761 26.7194 35.7831 26.8347 36.07C26.95 36.3569 27.1212 36.6181 27.3383 36.8383C27.5554 37.0585 27.8141 37.2333 28.0994 37.3527C28.3846 37.472 28.6908 37.5335 29 37.5335C29.3092 37.5335 29.6154 37.472 29.9006 37.3527C30.1859 37.2333 30.4446 37.0585 30.6617 36.8383C30.8788 36.6181 31.05 36.3569 31.1653 36.07C31.2806 35.7831 31.3377 35.4761 31.3333 35.1669V13.9664L34.3503 16.9833C34.5653 17.2073 34.8228 17.386 35.1078 17.5092C35.3927 17.6324 35.6994 17.6974 36.0098 17.7006C36.3203 17.7038 36.6282 17.6449 36.9156 17.5276C37.203 17.4103 37.4641 17.2368 37.6837 17.0172C37.9032 16.7977 38.0767 16.5366 38.194 16.2492C38.3114 15.9618 38.3702 15.6538 38.367 15.3434C38.3639 15.033 38.2988 14.7263 38.1756 14.4413C38.0525 14.1564 37.8737 13.8988 37.6497 13.6838L30.6497 6.68383C30.429 6.46305 30.1663 6.28879 29.8771 6.17137C29.5878 6.05395 29.278 5.99576 28.9658 6.00024ZM15 18.8336C11.1616 18.8336 8 21.9952 8 25.8336V41.0002C8 44.8386 11.1616 48.0002 15 48.0002H43C46.8384 48.0002 50 44.8386 50 41.0002V25.8336C50 21.9952 46.8384 18.8336 43 18.8336H41.8333C41.5241 18.8292 41.2172 18.8863 40.9302 19.0016C40.6433 19.1169 40.3822 19.2881 40.162 19.5052C39.9418 19.7223 39.7669 19.981 39.6476 20.2663C39.5282 20.5515 39.4668 20.8577 39.4668 21.1669C39.4668 21.4761 39.5282 21.7823 39.6476 22.0675C39.7669 22.3528 39.9418 22.6115 40.162 22.8286C40.3822 23.0457 40.6433 23.2169 40.9302 23.3322C41.2172 23.4475 41.5241 23.5046 41.8333 23.5002H43C44.316 23.5002 45.3333 24.5176 45.3333 25.8336V41.0002C45.3333 42.3162 44.316 43.3336 43 43.3336H15C13.684 43.3336 12.6667 42.3162 12.6667 41.0002V25.8336C12.6667 24.5176 13.684 23.5002 15 23.5002H16.1667C16.4759 23.5046 16.7828 23.4475 17.0698 23.3322C17.3567 23.2169 17.6178 23.0457 17.838 22.8286C18.0582 22.6115 18.2331 22.3528 18.3524 22.0675C18.4718 21.7823 18.5332 21.4761 18.5332 21.1669C18.5332 20.8577 18.4718 20.5515 18.3524 20.2663C18.2331 19.981 18.0582 19.7223 17.838 19.5052C17.6178 19.2881 17.3567 19.1169 17.0698 19.0016C16.7828 18.8863 16.4759 18.8292 16.1667 18.8336H15Z" fill="black"/>
</svg>
