<svg width="56" height="56" viewBox="0 0 56 56" fill="none" xmlns="http://www.w3.org/2000/svg">
<path d="M43.9985 42.4616H12.7714C11.4737 42.4616 10.2836 41.8078 9.589 40.7115C8.89437 39.6152 8.80822 38.2615 9.36069 37.0876L12.2308 31.313V24.5638C12.2308 15.6908 18.9843 8.42358 27.6063 8.01757C32.0767 7.8151 36.3081 9.38637 39.5335 12.4632C42.7622 15.5422 44.5392 19.6938 44.5392 24.1535V31.313L47.3931 37.0564C47.9606 38.2615 47.8755 39.6163 47.1809 40.7126C46.4863 41.8089 45.2963 42.4616 43.9985 42.4616ZM27.6828 9.63191H27.6936H27.6828ZM22.0202 44.6154C22.535 47.6664 25.1886 50.0002 28.385 50.0002C31.5813 50.0002 34.2339 47.6664 34.7497 44.6154H22.0202Z" fill="black"/>
</svg>
