<svg width="56" height="56" viewBox="0 0 56 56" fill="none" xmlns="http://www.w3.org/2000/svg">
<path d="M23.9031 8C14.5954 8 7 15.5954 7 24.9031C7 34.2107 14.5954 41.8061 23.9031 41.8061C27.7187 41.8061 31.2342 40.5157 34.069 38.3681L44.9863 49.2832C45.2012 49.5069 45.4585 49.6856 45.7432 49.8086C46.028 49.9317 46.3344 49.9967 46.6446 49.9999C46.9548 50.003 47.2625 49.9443 47.5496 49.827C47.8368 49.7098 48.0977 49.5364 48.3171 49.3171C48.5364 49.0977 48.7098 48.8368 48.827 48.5496C48.9443 48.2625 49.003 47.9548 48.9999 47.6446C48.9967 47.3344 48.9317 47.028 48.8086 46.7432C48.6856 46.4585 48.5069 46.2012 48.2832 45.9863L37.3681 35.069C39.5157 32.2342 40.8061 28.7187 40.8061 24.9031C40.8061 15.5954 33.2107 8 23.9031 8ZM23.9031 12.6629C30.6907 12.6629 36.1432 18.1154 36.1432 24.9031C36.1432 28.1621 34.8773 31.1054 32.8191 33.2931C32.6187 33.4382 32.4427 33.6141 32.2977 33.8145C30.1095 35.8754 27.1644 37.1432 23.9031 37.1432C17.1154 37.1432 11.6629 31.6907 11.6629 24.9031C11.6629 18.1154 17.1154 12.6629 23.9031 12.6629Z" fill="black"/>
</svg>
