<svg width="56" height="56" viewBox="0 0 56 56" fill="none" xmlns="http://www.w3.org/2000/svg">
<path d="M50.1667 34.3607H5.83337V19.313C5.83337 18.5127 6.24404 17.7672 6.92071 17.3402L26.131 5.20683C27.2732 4.48583 28.7269 4.48583 29.869 5.20683L49.0794 17.3402C49.756 17.7683 50.1667 18.5127 50.1667 19.313V34.3607Z" fill="url(#paint0_linear)"/>
<path d="M44.3333 37.3333H11.6666V16.3333C11.6666 15.6893 12.1893 15.1667 12.8333 15.1667H43.1666C43.8106 15.1667 44.3333 15.6893 44.3333 16.3333V37.3333Z" fill="url(#paint1_linear)"/>
<path d="M50.1666 19.8333V44.632C50.1666 45.7555 49.2403 46.6667 48.097 46.6667H11.1533L16.7568 39.2852L50.1666 19.8333Z" fill="url(#paint2_linear)"/>
<path d="M5.83337 19.8333V44.632C5.83337 45.7555 6.75971 46.6667 7.90304 46.6667H48.0982C48.7515 46.6667 49.3267 46.3633 49.7059 45.899L5.83337 19.8333Z" fill="url(#paint3_linear)"/>
<defs>
<linearGradient id="paint0_linear" x1="22.0745" y1="6.6675" x2="29.3335" y2="31.1675" gradientUnits="userSpaceOnUse">
<stop stop-color="#0078D3"/>
<stop offset="1" stop-color="#0858A1"/>
</linearGradient>
<linearGradient id="paint1_linear" x1="28" y1="15.652" x2="28" y2="31.7718" gradientUnits="userSpaceOnUse">
<stop stop-color="white"/>
<stop offset="0.24" stop-color="#F8F8F7"/>
<stop offset="1" stop-color="#E3E3E1"/>
</linearGradient>
<linearGradient id="paint2_linear" x1="30.2003" y1="32.592" x2="44.3298" y2="52.8138" gradientUnits="userSpaceOnUse">
<stop stop-color="#3CCBF4"/>
<stop offset="1" stop-color="#1FA0E5"/>
</linearGradient>
<linearGradient id="paint3_linear" x1="3.58637" y1="31.7753" x2="46.6224" y2="52.6458" gradientUnits="userSpaceOnUse">
<stop stop-color="#28AFEA"/>
<stop offset="1" stop-color="#0B88DA"/>
</linearGradient>
</defs>
</svg>
