<svg width="56" height="56" viewBox="0 0 56 56" fill="none" xmlns="http://www.w3.org/2000/svg">
<path d="M28.0001 4.66669C15.1341 4.66669 4.66675 15.134 4.66675 28C4.66675 40.866 15.1341 51.3334 28.0001 51.3334C40.8661 51.3334 51.3334 40.866 51.3334 28C51.3334 15.134 40.8661 4.66669 28.0001 4.66669ZM37.9879 29.2379L30.9879 36.2379C30.6461 36.5797 30.1981 36.75 29.7501 36.75C29.3021 36.75 28.8541 36.5797 28.5122 36.2379C27.8286 35.5554 27.8286 34.4459 28.5122 33.7634L32.5244 29.7512H19.2501C18.2829 29.7512 17.5001 28.9684 17.5001 28.0012C17.5001 27.034 18.2829 26.2512 19.2501 26.2512H32.5256L28.5134 22.239C27.8297 21.5565 27.8297 20.447 28.5134 19.7645C29.1971 19.0809 30.3042 19.0809 30.9879 19.7645L37.9879 26.7645C38.6704 27.4459 38.6704 28.5542 37.9879 29.2379Z" fill="black"/>
</svg>
