<svg width="56" height="56" viewBox="0 0 56 56" fill="none" xmlns="http://www.w3.org/2000/svg">
<path d="M17.5001 8.16666C10.4329 8.16666 4.66675 13.9328 4.66675 21C4.66675 25.7788 8.269 30.2784 12.6602 34.8929C17.0515 39.5074 22.4565 44.181 26.7628 48.4873C27.091 48.8154 27.536 48.9996 28.0001 48.9996C28.4641 48.9996 28.9092 48.8154 29.2374 48.4873C33.5436 44.181 38.9487 39.5074 43.3399 34.8929C47.7312 30.2784 51.3334 25.7788 51.3334 21C51.3334 13.9328 45.5672 8.16666 38.5001 8.16666C34.4442 8.16666 30.913 10.3442 28.0001 14.0433C25.0871 10.3442 21.5559 8.16666 17.5001 8.16666Z" fill="black"/>
</svg>
