<svg width="56" height="56" viewBox="0 0 56 56" fill="none" xmlns="http://www.w3.org/2000/svg">
<path d="M45.4794 8.13249C44.8629 8.14704 44.2771 8.4051 43.8502 8.85026L28 24.7005L12.1497 8.85026C11.932 8.62647 11.6716 8.44864 11.3839 8.3273C11.0962 8.20597 10.7871 8.14359 10.4749 8.14388C10.0109 8.14446 9.55763 8.28333 9.17296 8.54277C8.78828 8.80221 8.48968 9.17043 8.3153 9.6004C8.14092 10.0304 8.09867 10.5026 8.19395 10.9567C8.28923 11.4107 8.51771 11.8261 8.85022 12.1497L24.7005 28L8.85022 43.8503C8.62628 44.0653 8.44749 44.3228 8.32433 44.6078C8.20116 44.8927 8.13609 45.1994 8.13293 45.5098C8.12977 45.8203 8.18859 46.1282 8.30593 46.4156C8.42327 46.703 8.59678 46.9641 8.8163 47.1837C9.03582 47.4032 9.29693 47.5767 9.58434 47.694C9.87176 47.8114 10.1797 47.8702 10.4901 47.867C10.8006 47.8639 11.1072 47.7988 11.3922 47.6756C11.6772 47.5525 11.9347 47.3737 12.1497 47.1497L28 31.2995L43.8502 47.1497C44.0652 47.3737 44.3227 47.5525 44.6077 47.6756C44.8927 47.7988 45.1994 47.8639 45.5098 47.867C45.8202 47.8702 46.1282 47.8114 46.4156 47.694C46.703 47.5767 46.9641 47.4032 47.1836 47.1837C47.4031 46.9641 47.5766 46.703 47.694 46.4156C47.8113 46.1282 47.8701 45.8203 47.867 45.5098C47.8638 45.1994 47.7988 44.8927 47.6756 44.6078C47.5524 44.3228 47.3736 44.0653 47.1497 43.8503L31.2994 28L47.1497 12.1497C47.4892 11.8242 47.7224 11.4036 47.8187 10.9431C47.915 10.4827 47.8699 10.0039 47.6893 9.56953C47.5087 9.13517 47.2011 8.76553 46.8067 8.50908C46.4124 8.25264 45.9497 8.12137 45.4794 8.13249Z" fill="black"/>
</svg>
