<svg width="56" height="56" viewBox="0 0 56 56" fill="none" xmlns="http://www.w3.org/2000/svg">
<path d="M11.6667 10.5C11.3575 10.4956 11.0505 10.5527 10.7636 10.668C10.4766 10.7833 10.2155 10.9545 9.99529 11.1716C9.77509 11.3887 9.60024 11.6474 9.48089 11.9327C9.36155 12.2179 9.30009 12.5241 9.30009 12.8333C9.30009 13.1425 9.36155 13.4487 9.48089 13.7339C9.60024 14.0192 9.77509 14.2779 9.99529 14.495C10.2155 14.7121 10.4766 14.8833 10.7636 14.9986C11.0505 15.1139 11.3575 15.171 11.6667 15.1666H44.3333C44.6425 15.171 44.9495 15.1139 45.2364 14.9986C45.5233 14.8833 45.7845 14.7121 46.0047 14.495C46.2249 14.2779 46.3997 14.0192 46.5191 13.7339C46.6384 13.4487 46.6999 13.1425 46.6999 12.8333C46.6999 12.5241 46.6384 12.2179 46.5191 11.9327C46.3997 11.6474 46.2249 11.3887 46.0047 11.1716C45.7845 10.9545 45.5233 10.7833 45.2364 10.668C44.9495 10.5527 44.6425 10.4956 44.3333 10.5H11.6667ZM6.99999 25.6667C6.69079 25.6623 6.38381 25.7194 6.09689 25.8347C5.80996 25.95 5.54881 26.1212 5.32862 26.3383C5.10842 26.5554 4.93357 26.8141 4.81423 27.0993C4.69488 27.3846 4.63342 27.6908 4.63342 28C4.63342 28.3092 4.69488 28.6154 4.81423 28.9006C4.93357 29.1859 5.10842 29.4446 5.32862 29.6617C5.54881 29.8788 5.80996 30.05 6.09689 30.1653C6.38381 30.2806 6.69079 30.3377 6.99999 30.3333H49C49.3092 30.3377 49.6162 30.2806 49.9031 30.1653C50.19 30.05 50.4512 29.8788 50.6714 29.6617C50.8916 29.4446 51.0664 29.1859 51.1858 28.9006C51.3051 28.6154 51.3666 28.3092 51.3666 28C51.3666 27.6908 51.3051 27.3846 51.1858 27.0993C51.0664 26.8141 50.8916 26.5554 50.6714 26.3383C50.4512 26.1212 50.19 25.95 49.9031 25.8347C49.6162 25.7194 49.3092 25.6623 49 25.6667H6.99999ZM16.3333 40.8333C16.0241 40.8289 15.7171 40.8861 15.4302 41.0014C15.1433 41.1167 14.8821 41.2878 14.662 41.5049C14.4418 41.7221 14.2669 41.9808 14.1476 42.266C14.0282 42.5513 13.9668 42.8574 13.9668 43.1667C13.9668 43.4759 14.0282 43.782 14.1476 44.0673C14.2669 44.3526 14.4418 44.6113 14.662 44.8284C14.8821 45.0455 15.1433 45.2166 15.4302 45.3319C15.7171 45.4472 16.0241 45.5044 16.3333 45.5H39.6667C39.9759 45.5044 40.2828 45.4472 40.5698 45.3319C40.8567 45.2166 41.1178 45.0455 41.338 44.8284C41.5582 44.6113 41.7331 44.3526 41.8524 44.0673C41.9718 43.782 42.0332 43.4759 42.0332 43.1667C42.0332 42.8574 41.9718 42.5513 41.8524 42.266C41.7331 41.9808 41.5582 41.7221 41.338 41.5049C41.1178 41.2878 40.8567 41.1167 40.5698 41.0014C40.2828 40.8861 39.9759 40.8289 39.6667 40.8333H16.3333Z" fill="black"/>
</svg>
