<svg width="56" height="56" viewBox="0 0 56 56" fill="none" xmlns="http://www.w3.org/2000/svg">
<path d="M13.4167 7C9.88167 7 7 9.88167 7 13.4167V42.5833C7 46.1183 9.88167 49 13.4167 49H28.0592C27.3709 47.915 26.8107 46.7483 26.4141 45.5H13.4167C13.3 45.5 13.1824 45.4889 13.0658 45.4772H13.0612L27.1478 31.8372C27.5561 31.4522 28.2443 31.4058 28.7109 31.7324C29.4109 30.7991 30.228 29.9364 31.1263 29.1781C29.353 27.6147 26.436 27.6627 24.721 29.3193L10.5342 43.0436C10.5339 43.0421 10.5344 43.0405 10.5342 43.0391C10.5108 42.8874 10.5 42.735 10.5 42.5833V13.4167C10.5 11.8067 11.8067 10.5 13.4167 10.5H42.5833C44.1933 10.5 45.5 11.8067 45.5 13.4167V26.4141C46.7483 26.8107 47.915 27.3709 49 28.0592V13.4167C49 9.88167 46.1183 7 42.5833 7H13.4167ZM35.5833 15.1667C33.9792 15.1667 32.5545 15.8312 31.6504 16.8483C30.7463 17.8654 30.3333 19.1528 30.3333 20.4167C30.3333 21.6806 30.7463 22.968 31.6504 23.985C32.5545 25.0021 33.9792 25.6667 35.5833 25.6667C37.1875 25.6667 38.6122 25.0021 39.5163 23.985C40.4203 22.968 40.8333 21.6806 40.8333 20.4167C40.8333 19.1528 40.4203 17.8654 39.5163 16.8483C38.6122 15.8312 37.1875 15.1667 35.5833 15.1667ZM35.5833 18.6667C36.3125 18.6667 36.6378 18.8771 36.9004 19.1725C37.163 19.468 37.3333 19.9306 37.3333 20.4167C37.3333 20.9028 37.163 21.3654 36.9004 21.6608C36.6378 21.9562 36.3125 22.1667 35.5833 22.1667C34.8542 22.1667 34.5289 21.9562 34.2663 21.6608C34.0037 21.3654 33.8333 20.9028 33.8333 20.4167C33.8333 19.9306 34.0037 19.468 34.2663 19.1725C34.5289 18.8771 34.8542 18.6667 35.5833 18.6667ZM40.8333 28C33.7458 28 28 33.7458 28 40.8333C28 47.9208 33.7458 53.6667 40.8333 53.6667C47.9208 53.6667 53.6667 47.9208 53.6667 40.8333C53.6667 33.7458 47.9208 28 40.8333 28ZM40.8333 31.5C41.4773 31.5 42 32.0227 42 32.6667V39.6667H49C49.644 39.6667 50.1667 40.1893 50.1667 40.8333C50.1667 41.4773 49.644 42 49 42H42V49C42 49.644 41.4773 50.1667 40.8333 50.1667C40.1893 50.1667 39.6667 49.644 39.6667 49V42H32.6667C32.0227 42 31.5 41.4773 31.5 40.8333C31.5 40.1893 32.0227 39.6667 32.6667 39.6667H39.6667V32.6667C39.6667 32.0227 40.1893 31.5 40.8333 31.5Z" fill="black"/>
</svg>
