<svg width="56" height="56" viewBox="0 0 56 56" fill="none" xmlns="http://www.w3.org/2000/svg">
<path d="M9.33106 21.5811C5.80672 21.5811 2.91211 24.4757 2.91211 28C2.91211 31.5243 5.80672 34.4189 9.33106 34.4189C12.8547 34.4189 15.75 31.5243 15.75 28C15.75 24.4757 12.8547 21.5811 9.33106 21.5811ZM46.6644 21.5811C43.1401 21.5811 40.2454 24.4757 40.2454 28C40.2454 31.5243 43.1401 34.4189 46.6644 34.4189C50.188 34.4189 53.0833 31.5243 53.0833 28C53.0833 24.4757 50.188 21.5811 46.6644 21.5811ZM27.9977 21.5833C24.4739 21.5833 21.5811 24.4775 21.5811 28C21.5811 31.5231 24.4747 34.4167 27.9977 34.4167C31.5208 34.4167 34.4144 31.5231 34.4144 28C34.4144 24.4769 31.5208 21.5833 27.9977 21.5833Z" fill="black"/>
</svg>
