<svg width="56" height="56" viewBox="0 0 56 56" fill="none" xmlns="http://www.w3.org/2000/svg">
<path d="M37.9165 7C35.9235 7 34.2071 7.81041 33.1086 9.04622C32.4269 9.81307 32.0456 10.723 31.7984 11.6667H6.41653C6.18463 11.6634 5.9544 11.7062 5.7392 11.7927C5.52401 11.8792 5.32814 12.0076 5.163 12.1704C4.99785 12.3332 4.86671 12.5272 4.7772 12.7412C4.6877 12.9551 4.6416 13.1847 4.6416 13.4167C4.6416 13.6486 4.6877 13.8782 4.7772 14.0921C4.86671 14.3061 4.99785 14.5001 5.163 14.6629C5.32814 14.8258 5.52401 14.9542 5.7392 15.0406C5.9544 15.1271 6.18463 15.1699 6.41653 15.1667H31.7984C32.0456 16.1104 32.4269 17.0203 33.1086 17.7871C34.2071 19.0229 35.9235 19.8333 37.9165 19.8333C39.9096 19.8333 41.626 19.0229 42.7245 17.7871C43.4061 17.0203 43.7874 16.1104 44.0347 15.1667H49.5832C49.8151 15.1699 50.0453 15.1271 50.2605 15.0406C50.4757 14.9542 50.6716 14.8258 50.8367 14.6629C51.0019 14.5001 51.133 14.3061 51.2225 14.0921C51.312 13.8782 51.3581 13.6486 51.3581 13.4167C51.3581 13.1847 51.312 12.9551 51.2225 12.7412C51.133 12.5272 51.0019 12.3332 50.8367 12.1704C50.6716 12.0076 50.4757 11.8792 50.2605 11.7927C50.0453 11.7062 49.8151 11.6634 49.5832 11.6667H44.0347C43.7874 10.723 43.4061 9.81307 42.7245 9.04622C41.626 7.81041 39.9096 7 37.9165 7ZM37.9165 10.5C39.0346 10.5 39.6515 10.8563 40.1086 11.3704C40.5656 11.8846 40.8332 12.6389 40.8332 13.4167C40.8332 14.1944 40.5656 14.9487 40.1086 15.4629C39.6515 15.9771 39.0346 16.3333 37.9165 16.3333C36.7985 16.3333 36.1815 15.9771 35.7245 15.4629C35.2674 14.9487 34.9999 14.1944 34.9999 13.4167C34.9999 12.6389 35.2674 11.8846 35.7245 11.3704C36.1815 10.8563 36.7985 10.5 37.9165 10.5ZM18.0832 21.5833C16.0901 21.5833 14.3738 22.3937 13.2752 23.6296C12.5936 24.3964 12.2123 25.3063 11.965 26.25H6.41653C6.18463 26.2467 5.9544 26.2896 5.7392 26.376C5.52401 26.4625 5.32814 26.5909 5.163 26.7537C4.99785 26.9165 4.86671 27.1106 4.7772 27.3245C4.6877 27.5385 4.6416 27.7681 4.6416 28C4.6416 28.2319 4.6877 28.4615 4.7772 28.6755C4.86671 28.8894 4.99785 29.0835 5.163 29.2463C5.32814 29.4091 5.52401 29.5375 5.7392 29.624C5.9544 29.7104 6.18463 29.7533 6.41653 29.75H11.965C12.2123 30.6937 12.5936 31.6036 13.2752 32.3704C14.3738 33.6063 16.0901 34.4167 18.0832 34.4167C20.0762 34.4167 21.7926 33.6063 22.8911 32.3704C23.5728 31.6036 23.9541 30.6937 24.2014 29.75H49.5832C49.8151 29.7533 50.0453 29.7104 50.2605 29.624C50.4757 29.5375 50.6716 29.4091 50.8367 29.2463C51.0019 29.0835 51.133 28.8894 51.2225 28.6755C51.312 28.4615 51.3581 28.2319 51.3581 28C51.3581 27.7681 51.312 27.5385 51.2225 27.3245C51.133 27.1106 51.0019 26.9165 50.8367 26.7537C50.6716 26.5909 50.4757 26.4625 50.2605 26.376C50.0453 26.2896 49.8151 26.2467 49.5832 26.25H24.2014C23.9541 25.3063 23.5728 24.3964 22.8911 23.6296C21.7926 22.3937 20.0762 21.5833 18.0832 21.5833ZM18.0832 25.0833C19.2012 25.0833 19.8182 25.4396 20.2752 25.9538C20.7323 26.468 20.9999 27.2222 20.9999 28C20.9999 28.7778 20.7323 29.532 20.2752 30.0462C19.8182 30.5604 19.2012 30.9167 18.0832 30.9167C16.9651 30.9167 16.3482 30.5604 15.8911 30.0462C15.4341 29.532 15.1665 28.7778 15.1665 28C15.1665 27.2222 15.4341 26.468 15.8911 25.9538C16.3482 25.4396 16.9651 25.0833 18.0832 25.0833ZM35.5832 36.1667C33.5901 36.1667 31.8738 36.9771 30.7752 38.2129C30.0936 38.9797 29.7123 39.8896 29.465 40.8333H6.41653C6.18463 40.8301 5.9544 40.8729 5.7392 40.9594C5.52401 41.0458 5.32814 41.1742 5.163 41.3371C4.99785 41.4999 4.86671 41.6939 4.7772 41.9079C4.6877 42.1218 4.6416 42.3514 4.6416 42.5833C4.6416 42.8153 4.6877 43.0449 4.7772 43.2588C4.86671 43.4728 4.99785 43.6668 5.163 43.8296C5.32814 43.9924 5.52401 44.1208 5.7392 44.2073C5.9544 44.2938 6.18463 44.3366 6.41653 44.3333H29.465C29.7123 45.277 30.0936 46.1869 30.7752 46.9538C31.8738 48.1896 33.5901 49 35.5832 49C37.5762 49 39.2926 48.1896 40.3911 46.9538C41.0728 46.1869 41.4541 45.277 41.7014 44.3333H49.5832C49.8151 44.3366 50.0453 44.2938 50.2605 44.2073C50.4757 44.1208 50.6716 43.9924 50.8367 43.8296C51.0019 43.6668 51.133 43.4728 51.2225 43.2588C51.312 43.0449 51.3581 42.8153 51.3581 42.5833C51.3581 42.3514 51.312 42.1218 51.2225 41.9079C51.133 41.6939 51.0019 41.4999 50.8367 41.3371C50.6716 41.1742 50.4757 41.0458 50.2605 40.9594C50.0453 40.8729 49.8151 40.8301 49.5832 40.8333H41.7014C41.4541 39.8896 41.0728 38.9797 40.3911 38.2129C39.2926 36.9771 37.5762 36.1667 35.5832 36.1667ZM35.5832 39.6667C36.7012 39.6667 37.3182 40.0229 37.7752 40.5371C38.2323 41.0513 38.4999 41.8056 38.4999 42.5833C38.4999 43.3611 38.2323 44.1154 37.7752 44.6296C37.3182 45.1437 36.7012 45.5 35.5832 45.5C34.4651 45.5 33.8482 45.1437 33.3911 44.6296C32.9341 44.1154 32.6665 43.3611 32.6665 42.5833C32.6665 41.8056 32.9341 41.0513 33.3911 40.5371C33.8482 40.0229 34.4651 39.6667 35.5832 39.6667Z" fill="black"/>
</svg>
