<svg width="56" height="56" viewBox="0 0 56 56" fill="none" xmlns="http://www.w3.org/2000/svg">
<path d="M42 19.8333V49C42 50.2892 40.9559 51.3333 39.6667 51.3333H11.6667C10.3775 51.3333 9.33337 50.2892 9.33337 49V11.6667C9.33337 10.3775 10.3775 9.33334 11.6667 9.33334H31.5L42 19.8333Z" fill="#199BE2"/>
<path opacity="0.05" d="M11.6666 9.33334H42V49H15.9611C13.5893 49 11.6666 47.0773 11.6666 44.7055V9.33334Z" fill="black"/>
<path opacity="0.07" d="M12.8334 9.33334H42V47.8333H16.1455C14.3162 47.8333 12.8334 46.3505 12.8334 44.5212V9.33334Z" fill="black"/>
<path d="M46.6667 16.3333V44.3333C46.6667 45.6225 45.6225 46.6667 44.3333 46.6667H16.3333C15.0442 46.6667 14 45.6225 14 44.3333V7C14 5.71083 15.0442 4.66666 16.3333 4.66666H35L46.6667 16.3333Z" fill="#50E6FF"/>
<path d="M35 4.66666V14C35 15.2892 36.0442 16.3333 37.3333 16.3333H46.6667L35 4.66666Z" fill="url(#paint0_linear)"/>
<path opacity="0.05" d="M26.3795 41.8695C24.8209 41.8695 23.3555 41.2629 22.2542 40.1627C19.9804 37.8877 19.9804 34.187 22.2542 31.9132L25.5547 28.6139C25.9724 28.195 26.4542 27.845 26.9862 27.5685C27.2615 27.0365 27.6115 26.557 28.0304 26.1382L31.3297 22.8377C32.4299 21.7375 33.8952 21.1309 35.455 21.1309C37.0137 21.1309 38.479 21.7375 39.5804 22.8377C41.8542 25.1127 41.8542 28.8134 39.5804 31.0872L36.2799 34.3865C35.8622 34.8054 35.3804 35.1554 34.8484 35.4319C34.573 35.9639 34.223 36.4434 33.8042 36.8622L30.5049 40.1627C29.4035 41.2629 27.9394 41.8695 26.3795 41.8695ZM25.5547 35.2125C25.0997 35.6675 25.0997 36.4084 25.5547 36.8634C25.774 37.0827 26.068 37.204 26.3795 37.204C26.6922 37.204 26.985 37.0827 27.2055 36.8634L28.9415 35.1274C28.6125 34.9127 28.3069 34.6654 28.0292 34.3877C27.7515 34.11 27.5042 33.8044 27.2907 33.4765L25.5547 35.2125ZM32.8919 27.8754C33.2197 28.0889 33.5254 28.3362 33.803 28.6139C34.0807 28.8915 34.328 29.1972 34.5415 29.525L36.2775 27.789C36.7325 27.334 36.7325 26.5932 36.2775 26.1382C36.0582 25.9189 35.7654 25.7987 35.4527 25.7987C35.14 25.7987 34.8472 25.92 34.6267 26.1382L32.8919 27.8754Z" fill="black"/>
<path opacity="0.07" d="M26.3795 41.2863C24.976 41.2863 23.6577 40.7403 22.6672 39.7509C20.6209 37.7034 20.6209 34.3726 22.6672 32.3263L25.9677 29.0269C26.3877 28.6069 26.8754 28.2639 27.4214 28.0049C27.6804 27.4589 28.0234 26.9713 28.4422 26.5524L31.7415 23.2519C32.732 22.2614 34.0504 21.7166 35.4539 21.7166C36.8574 21.7166 38.1757 22.2626 39.1662 23.2519C41.2125 25.2994 41.2125 28.6303 39.1662 30.6766L35.8657 33.9759C35.4457 34.3959 34.958 34.7389 34.412 34.9979C34.153 35.5439 33.81 36.0316 33.3912 36.4504L30.0919 39.7509C29.1014 40.7403 27.783 41.2863 26.3795 41.2863ZM25.1417 34.7996C24.4604 35.4821 24.4604 36.5928 25.1417 37.2753C25.4719 37.6043 25.9105 37.7863 26.3795 37.7863C26.8485 37.7863 27.2872 37.6043 27.6174 37.2753L29.9017 34.9909C29.3545 34.7378 28.8657 34.3983 28.4422 33.9748C28.0187 33.5513 27.6792 33.0636 27.426 32.5164L25.1417 34.7996ZM31.9329 28.0096C32.48 28.2628 32.9689 28.6034 33.3912 29.0258C33.8147 29.4493 34.1542 29.9369 34.4074 30.4841L36.6917 28.2009C37.373 27.5184 37.373 26.4078 36.6917 25.7253C36.3615 25.3963 35.9229 25.2143 35.4539 25.2143C34.9849 25.2143 34.5462 25.3951 34.216 25.7253L31.9329 28.0096Z" fill="black"/>
<path d="M32.9794 36.0371L29.68 39.3365C27.86 41.1565 24.9002 41.1565 23.0802 39.3365C21.2602 37.5165 21.2602 34.5566 23.0802 32.7366L26.3795 29.4373C28.1995 27.6173 31.1594 27.6173 32.9794 29.4373C34.7994 31.2573 34.7982 34.2183 32.9794 36.0371ZM24.7299 34.3875C23.8199 35.2975 23.8199 36.778 24.7299 37.6868C25.6399 38.5968 27.1192 38.5968 28.0292 37.6868L31.3285 34.3875C32.2385 33.4775 32.2385 31.997 31.3285 31.0881C30.4185 30.1781 28.9392 30.1781 28.0292 31.0881L24.7299 34.3875Z" fill="#05509B"/>
<path d="M38.7543 30.2624L35.4549 33.5617C33.6349 35.3817 30.6751 35.3817 28.8551 33.5617C27.0351 31.7417 27.0351 28.7819 28.8551 26.9619L32.1544 23.6625C33.9744 21.8425 36.9343 21.8425 38.7543 23.6625C40.5731 25.4825 40.5731 28.4435 38.7543 30.2624ZM30.5036 28.6127C29.5936 29.5227 29.5936 31.0032 30.5036 31.912C31.4136 32.822 32.8929 32.822 33.8029 31.912L37.1023 28.6127C38.0123 27.7027 38.0123 26.2222 37.1023 25.3134C36.1923 24.4034 34.7129 24.4034 33.8029 25.3134L30.5036 28.6127Z" fill="#0083DE"/>
<path d="M33.8042 31.913C33.3095 32.4076 32.6457 32.6235 31.997 32.5803C32.0414 33.229 31.8255 33.8928 31.3297 34.3875L30.9634 34.7538C31.9574 35.0151 33.0155 34.958 33.971 34.5543C34.3747 33.5988 34.4319 32.5406 34.1705 31.5466L33.8042 31.913Z" fill="#05509B"/>
<defs>
<linearGradient id="paint0_linear" x1="35.623" y1="15.7103" x2="40.9383" y2="10.395" gradientUnits="userSpaceOnUse">
<stop stop-color="#3079D6"/>
<stop offset="1" stop-color="#297CD2"/>
</linearGradient>
</defs>
</svg>
