<svg width="10" height="10" viewBox="0 0 10 10" fill="none" xmlns="http://www.w3.org/2000/svg">
<path d="M9.36986 0.033122C9.21571 0.0367602 9.06927 0.101275 8.96255 0.212565L4.99999 4.17513L1.03742 0.212565C0.982996 0.156617 0.917895 0.112159 0.845974 0.0818251C0.774054 0.0514914 0.696778 0.0358987 0.618723 0.0359703C0.502727 0.036114 0.389407 0.0708332 0.293239 0.135693C0.197071 0.200553 0.122421 0.292608 0.0788253 0.4001C0.0352294 0.507591 0.0246669 0.625639 0.0484871 0.739163C0.0723072 0.852687 0.129429 0.956533 0.212554 1.03743L4.17512 5L0.212554 8.96257C0.15657 9.01632 0.111873 9.0807 0.0810813 9.15194C0.0502899 9.22318 0.034023 9.29985 0.0332333 9.37746C0.0324436 9.45507 0.0471469 9.53205 0.0764823 9.60391C0.105818 9.67576 0.149195 9.74104 0.204075 9.79592C0.258954 9.85079 0.324232 9.89417 0.396085 9.92351C0.467939 9.95284 0.544924 9.96755 0.622531 9.96676C0.700138 9.96597 0.776807 9.9497 0.848049 9.91891C0.919291 9.88812 0.983672 9.84342 1.03742 9.78744L4.99999 5.82487L8.96255 9.78744C9.0163 9.84342 9.08069 9.88812 9.15193 9.91891C9.22317 9.9497 9.29984 9.96597 9.37745 9.96676C9.45506 9.96755 9.53204 9.95285 9.60389 9.92351C9.67575 9.89417 9.74103 9.8508 9.79591 9.79592C9.85078 9.74104 9.89416 9.67576 9.9235 9.60391C9.95283 9.53205 9.96754 9.45507 9.96675 9.37746C9.96596 9.29985 9.94969 9.22318 9.9189 9.15194C9.88811 9.0807 9.84341 9.01632 9.78742 8.96257L5.82486 5L9.78742 1.03743C9.87231 0.956041 9.93061 0.850893 9.95469 0.735782C9.97876 0.620671 9.96748 0.500972 9.92234 0.392382C9.87719 0.283792 9.80027 0.191381 9.70168 0.127271C9.6031 0.0631604 9.48743 0.0303427 9.36986 0.033122Z" fill="white"/>
</svg>
