<svg width="56" height="56" viewBox="0 0 56 56" fill="none" xmlns="http://www.w3.org/2000/svg">
<path d="M23.9167 7C14.5946 7 7 14.5946 7 23.9167C7 33.2388 14.5946 40.8333 23.9167 40.8333C27.9491 40.8333 31.656 39.4089 34.5671 37.0417L46.0127 48.4873C46.174 48.6553 46.3671 48.7893 46.5808 48.8817C46.7945 48.9741 47.0246 49.0229 47.2574 49.0252C47.4902 49.0276 47.7211 48.9835 47.9367 48.8955C48.1523 48.8075 48.3481 48.6774 48.5127 48.5127C48.6774 48.3481 48.8075 48.1523 48.8955 47.9367C48.9835 47.7211 49.0276 47.4902 49.0252 47.2574C49.0229 47.0246 48.9741 46.7945 48.8817 46.5808C48.7893 46.3671 48.6553 46.174 48.4873 46.0127L37.0417 34.5671C39.4089 31.656 40.8333 27.9491 40.8333 23.9167C40.8333 14.5946 33.2388 7 23.9167 7ZM23.9167 10.5C31.3472 10.5 37.3333 16.4861 37.3333 23.9167C37.3333 27.5364 35.9056 30.8067 33.5895 33.2158C33.4468 33.3208 33.3208 33.4468 33.2158 33.5895C30.8067 35.9056 27.5364 37.3333 23.9167 37.3333C16.4861 37.3333 10.5 31.3472 10.5 23.9167C10.5 16.4861 16.4861 10.5 23.9167 10.5Z" fill="black"/>
</svg>
