<svg width="56" height="56" viewBox="0 0 56 56" fill="none" xmlns="http://www.w3.org/2000/svg">
<path d="M17.5001 8.1667C10.4446 8.1667 4.66675 13.9446 4.66675 21C4.66675 24.9571 7.03338 28.5115 10.0671 32.0765C13.1009 35.6415 16.9887 39.2297 20.7563 42.752C22.5522 44.4302 26.3298 48.2959 26.3298 48.2959C26.5472 48.5187 26.807 48.6958 27.0938 48.8167C27.3807 48.9376 27.6888 48.9998 28.0001 48.9998C28.3114 48.9998 28.6195 48.9376 28.9063 48.8167C29.1932 48.6958 29.4529 48.5187 29.6703 48.2959C29.6703 48.2959 33.4479 44.4302 35.2439 42.752C39.0114 39.2297 42.8993 35.6415 45.933 32.0765C48.9668 28.5115 51.3334 24.9571 51.3334 21C51.3334 13.9446 45.5556 8.1667 38.5001 8.1667C34.6296 8.1667 30.9682 9.92945 28.0001 13.5352C25.032 9.92945 21.3706 8.1667 17.5001 8.1667ZM17.5001 12.8334C20.7208 12.8334 22.968 13.8312 25.5346 17.892C25.5346 17.8927 25.5346 17.8935 25.5346 17.8942L26.0291 18.6735C26.2396 19.0057 26.5307 19.2793 26.8753 19.4689C27.2199 19.6585 27.6068 19.7579 28.0001 19.7579C28.3934 19.7579 28.7803 19.6585 29.1249 19.4689C29.4695 19.2793 29.7606 19.0057 29.9711 18.6735L30.4656 17.8942C30.4656 17.8935 30.4656 17.8927 30.4656 17.892C33.0322 13.8312 35.2793 12.8334 38.5001 12.8334C43.0249 12.8334 46.6668 16.4752 46.6668 21C46.6668 22.8763 45.1324 25.8164 42.3783 29.0528C39.6243 32.2891 35.8368 35.8106 32.0584 39.3431C30.6331 40.6749 29.209 42.1465 28.0001 43.3763C26.7912 42.1465 25.3671 40.6749 23.9418 39.3431C20.1633 35.8106 16.3759 32.2891 13.6218 29.0528C10.8677 25.8164 9.33342 22.8763 9.33342 21C9.33342 16.4752 12.9752 12.8334 17.5001 12.8334Z" fill="black"/>
</svg>
