<svg width="56" height="56" viewBox="0 0 56 56" fill="none" xmlns="http://www.w3.org/2000/svg">
<g clip-path="url(#clip0)">
<path d="M4.04462 4.65106C3.6812 4.65469 3.32794 4.77137 3.03385 4.98489C2.73976 5.19842 2.51943 5.4982 2.40345 5.84263C2.28747 6.18706 2.28159 6.55905 2.38663 6.90697C2.49167 7.25489 2.70241 7.56149 2.9896 7.7842L8.82294 12.4509C9.18554 12.7409 9.64852 12.8751 10.11 12.8238C10.5716 12.7725 10.9938 12.54 11.2839 12.1774C11.574 11.8148 11.7081 11.3518 11.6568 10.8903C11.6056 10.4288 11.373 10.0066 11.0104 9.71649L5.1771 5.04982C4.85844 4.78752 4.45732 4.64629 4.04462 4.65106ZM51.903 4.65106C51.5083 4.65837 51.1277 4.7989 50.8229 5.04982L44.9896 9.71649C44.627 10.0066 44.3945 10.4288 44.3432 10.8903C44.2919 11.3518 44.4261 11.8148 44.7162 12.1774C45.0062 12.54 45.4285 12.7725 45.89 12.8238C46.3515 12.8751 46.8145 12.7409 47.1771 12.4509L53.0104 7.7842C53.3013 7.55877 53.5137 7.24742 53.6174 6.89438C53.7212 6.54133 53.711 6.16457 53.5884 5.81763C53.4658 5.47069 53.2369 5.17123 52.9343 4.96181C52.6318 4.75238 52.2709 4.64365 51.903 4.65106ZM28 4.66701C18.3505 4.66701 10.5 12.5175 10.5 22.167V31.7168L7.27802 39.0814C6.88135 39.9856 6.97027 41.0194 7.51044 41.8454C8.0506 42.6726 8.9627 43.167 9.95087 43.167H46.0492C47.0373 43.167 47.9494 42.6726 48.4896 41.8454C49.0309 41.0194 49.1187 39.9856 48.722 39.0814L45.5 31.7168V22.167C45.5 12.5175 37.6495 4.66701 28 4.66701ZM1.75002 18.667C1.51813 18.6637 1.28789 18.7066 1.0727 18.793C0.857502 18.8795 0.66164 19.0079 0.496493 19.1707C0.331346 19.3336 0.200208 19.5276 0.1107 19.7415C0.0211913 19.9555 -0.0249023 20.1851 -0.0249023 20.417C-0.0249023 20.6489 0.0211913 20.8785 0.1107 21.0925C0.200208 21.3064 0.331346 21.5005 0.496493 21.6633C0.66164 21.8261 0.857502 21.9545 1.0727 22.041C1.28789 22.1274 1.51813 22.1703 1.75002 22.167H6.41669C6.64858 22.1703 6.87882 22.1274 7.09401 22.041C7.30921 21.9545 7.50507 21.8261 7.67022 21.6633C7.83536 21.5005 7.9665 21.3064 8.05601 21.0925C8.14552 20.8785 8.19161 20.6489 8.19161 20.417C8.19161 20.1851 8.14552 19.9555 8.05601 19.7415C7.9665 19.5276 7.83536 19.3336 7.67022 19.1707C7.50507 19.0079 7.30921 18.8795 7.09401 18.793C6.87882 18.7066 6.64858 18.6637 6.41669 18.667H1.75002ZM49.5833 18.667C49.3514 18.6637 49.1212 18.7066 48.906 18.793C48.6908 18.8795 48.495 19.0079 48.3298 19.1707C48.1647 19.3336 48.0335 19.5276 47.944 19.7415C47.8545 19.9555 47.8084 20.1851 47.8084 20.417C47.8084 20.6489 47.8545 20.8785 47.944 21.0925C48.0335 21.3064 48.1647 21.5005 48.3298 21.6633C48.495 21.8261 48.6908 21.9545 48.906 22.041C49.1212 22.1274 49.3514 22.1703 49.5833 22.167H54.25C54.4819 22.1703 54.7121 22.1274 54.9273 22.041C55.1425 21.9545 55.3384 21.8261 55.5035 21.6633C55.6687 21.5005 55.7998 21.3064 55.8893 21.0925C55.9788 20.8785 56.0249 20.6489 56.0249 20.417C56.0249 20.1851 55.9788 19.9555 55.8893 19.7415C55.7998 19.5276 55.6687 19.3336 55.5035 19.1707C55.3384 19.0079 55.1425 18.8795 54.9273 18.793C54.7121 18.7066 54.4819 18.6637 54.25 18.667H49.5833ZM21.4079 45.5003C22.3716 48.2152 24.9585 50.167 28 50.167C31.0415 50.167 33.6285 48.2152 34.5921 45.5003H21.4079Z" fill="black"/>
</g>
<defs>
<clipPath id="clip0">
<rect width="56" height="56" fill="white"/>
</clipPath>
</defs>
</svg>
