<svg width="56" height="56" viewBox="0 0 56 56" fill="none" xmlns="http://www.w3.org/2000/svg">
<path d="M27.8 7C25.0152 7 22.3445 8.10625 20.3754 10.0754C18.4062 12.0445 17.3 14.7152 17.3 17.5C17.3 20.2848 18.4062 22.9555 20.3754 24.9246C22.3445 26.8938 25.0152 28 27.8 28C30.5848 28 33.2555 26.8938 35.2246 24.9246C37.1937 22.9555 38.3 20.2848 38.3 17.5C38.3 14.7152 37.1937 12.0445 35.2246 10.0754C33.2555 8.10625 30.5848 7 27.8 7ZM40.422 32.2H15.1779C12.8742 32.2 11 34.0742 11 36.3779V37.975C11 41.4526 12.9792 44.4598 16.5723 46.4411C19.5617 48.0917 23.5496 49 27.8 49C35.8913 49 44.6 45.5497 44.6 37.975V36.3779C44.6 34.0742 42.7257 32.2 40.422 32.2Z" fill="black"/>
</svg>
