<svg width="56" height="56" viewBox="0 0 56 56" fill="none" xmlns="http://www.w3.org/2000/svg">
<path d="M51.3334 28C51.3334 15.134 40.8661 4.66666 28.0001 4.66666C15.1341 4.66666 4.66675 15.134 4.66675 28C4.66675 40.866 15.1341 51.3333 28.0001 51.3333C40.8661 51.3333 51.3334 40.866 51.3334 28ZM26.2501 37.9167V28H21.0001C20.3164 28 19.6957 27.6022 19.4099 26.9815C19.3026 26.747 19.2501 26.4973 19.2501 26.25C19.2501 25.8393 19.3947 25.4345 19.6712 25.1102L26.6712 16.9435C27.0037 16.5562 27.4891 16.3333 28.0001 16.3333C28.5111 16.3333 28.9964 16.5562 29.3289 16.9447L36.3289 25.1113C36.7734 25.6305 36.8761 26.3597 36.5903 26.9815C36.3044 27.6022 35.6838 28 35.0001 28H29.7501V37.9167C29.7501 38.8838 28.9672 39.6667 28.0001 39.6667C27.0329 39.6667 26.2501 38.8838 26.2501 37.9167Z" fill="black"/>
</svg>
