<svg width="56" height="56" viewBox="0 0 56 56" fill="none" xmlns="http://www.w3.org/2000/svg">
<path d="M45.0769 50.0002H35.3846C33.8974 50.0002 32.6923 48.7951 32.6923 47.3079V37.6156C32.6923 36.4256 31.7285 35.4618 30.5385 35.4618H26.2308C25.0408 35.4618 24.0769 36.4256 24.0769 37.6156V47.3079C24.0769 48.7951 22.8718 50.0002 21.3846 50.0002H11.6923C10.2051 50.0002 9 48.7951 9 47.3079V26.7527C9 24.2768 10.1351 21.9378 12.0789 20.4064L27.3842 8.34591C27.9711 7.88498 28.7982 7.88498 29.384 8.34591L44.6914 20.4064C46.6352 21.9378 47.7692 24.2758 47.7692 26.7505V47.3079C47.7692 48.7951 46.5642 50.0002 45.0769 50.0002Z" fill="black"/>
</svg>
